<?xml version="1.0" standalone="no"?>
<!DOCTYPE svg PUBLIC "-//W3C//DTD SVG 20010904//EN"
 "http://www.w3.org/TR/2001/REC-SVG-20010904/DTD/svg10.dtd">
<svg version="1.0" xmlns="http://www.w3.org/2000/svg"
 width="192.000000pt" height="500.000000pt" viewBox="0 0 192.000000 500.000000"
 preserveAspectRatio="xMidYMid meet">

<g transform="translate(0.000000,500.000000) scale(0.100000,-0.100000)"
fill="#000000" stroke="none">
<path d="M946 4991 c-3 -4 -6 -359 -7 -787 -2 -790 -9 -1285 -29 -2034 -14
-547 -38 -1303 -45 -1410 -3 -47 -10 -202 -15 -345 -5 -143 -13 -295 -16 -338
l-6 -77 135 0 c99 0 136 3 139 13 2 6 1 93 -4 192 -69 1592 -117 3474 -118
4598 0 165 -2 197 -14 197 -8 0 -17 -4 -20 -9z"/>
<path d="M1166 4541 c-4 -6 -11 -160 -16 -343 -5 -183 -14 -459 -19 -613 -31
-888 -20 -1381 45 -1897 88 -707 258 -1195 558 -1595 33 -46 63 -83 66 -83 6
0 101 250 100 265 0 6 -27 41 -61 80 -309 357 -511 908 -598 1630 -55 460 -65
754 -55 1660 4 413 8 783 9 824 0 48 -4 76 -12 78 -6 2 -14 0 -17 -6z"/>
<path d="M734 3739 c14 -1132 -33 -1774 -169 -2336 -108 -447 -273 -791 -507
-1064 -26 -30 -48 -60 -48 -65 0 -9 90 -255 96 -263 5 -6 37 34 113 139 295
411 471 992 541 1790 41 470 44 996 12 2100 -7 210 -8 225 -26 228 -19 4 -19
-8 -12 -529z"/>
<path d="M1296 3913 c-10 -120 -7 -1018 4 -1228 40 -752 154 -1314 342 -1689
62 -124 149 -259 160 -248 10 10 98 237 98 253 0 6 -24 48 -54 92 -211 320
-379 904 -455 1582 -33 295 -43 535 -39 937 l3 378 -26 0 c-25 0 -26 -2 -33
-77z"/>
<path d="M563 3663 c25 -200 16 -734 -19 -1073 -65 -641 -244 -1194 -491
-1519 l-49 -65 50 -133 c28 -73 54 -133 57 -133 11 0 129 189 177 286 127 254
213 547 272 924 55 352 72 674 68 1270 l-3 485 -34 3 -34 3 6 -48z"/>
</g>
</svg>
